<svg width="44" height="44" viewBox="0 0 44 44" fill="none" xmlns="http://www.w3.org/2000/svg">
<path d="M11.5 11.6457C10.8333 10.979 11 7.14571 6 14.1457H14.5C13.3284 13.1694 15 9.64571 11.5 11.6457Z" fill="white"/>
<path d="M14.3295 12.9909C14.3242 13.3935 14.6276 13.6733 14.8069 13.7774L15.8275 14.6156L14.5 14.6251C14.4263 14.6289 14.3495 14.6284 14.2688 14.6218C13.6732 14.5727 13.584 14.4262 12.9019 14.4498C12.2199 14.4704 11.5375 14.3668 11.2338 14.4152C10.9301 14.461 10.898 14.3038 10.4668 14.3319C10.0355 14.3582 9.77417 14.3314 9.39702 14.2816C9.01984 14.2295 7.86111 14.1922 7.43977 14.2273C7.01841 14.259 6.53784 14.1846 6.24883 14.1724C6.15881 14.1677 6.08796 14.1621 6.03365 14.1565C6.01064 14.1542 6.00001 14.1495 6 14.1449C6 14.1449 6 14.1449 6 14.1449C6 14.1449 6 14.1449 6 14.1449C6 14.1449 6 14.1449 6 14.1449C6.00001 14.1391 6.01649 14.1334 6.04606 14.1325C6.1896 14.1282 6.40414 14.1181 6.65757 14.0899C7.13013 14.034 7.18177 14.0886 7.81988 14.0513C8.45799 14.0129 8.84137 13.9286 9.59219 13.9608C10.343 14.0019 10.5154 13.7673 11.5753 13.8793C12.6351 14.006 12.7466 13.7385 13.8028 13.6788C14.0259 13.6671 14.2613 13.6642 14.5 13.6672L14.1937 14.5133C13.662 14.0355 13.6375 13.4303 13.5973 13.0137C13.5705 12.5803 13.5732 12.2306 13.529 12.0087C13.5162 11.94 13.5014 11.8736 13.4824 11.807C13.4494 11.6892 13.4001 11.5813 13.3512 11.5281C13.3014 11.4766 13.2729 11.4607 13.1711 11.449C12.9643 11.429 12.6062 11.5383 12.2661 11.6751C12.0832 11.7474 11.8884 11.8453 11.6814 11.9632C11.5464 12.0377 11.3489 12.0148 11.2415 11.9042C10.8654 11.4444 10.8333 11.094 10.6554 10.7798C10.4837 10.4583 10.3668 10.3313 10.1286 10.3333C9.34935 10.3951 8.25681 11.5236 7.81972 11.9549C7.3665 12.4175 7.26805 12.5366 6.88959 13.0465C6.68273 13.3279 6.36966 13.7157 6.09624 14.0411C5.95585 14.2092 5.97 14.1573 6.08736 13.9727C6.26031 13.7008 6.40194 13.5237 6.47961 13.3617C6.62243 13.0539 6.65775 12.943 6.94425 12.6296C7.21576 12.3432 7.26192 12.111 7.41106 11.9385C7.57194 11.7684 7.59472 11.7927 8.38056 10.8635C9.16136 9.98246 9.90297 9.4234 10.659 9.7265C11.3328 9.98565 11.4984 11.0994 11.7558 11.3899L11.3205 11.3316C11.3945 11.2872 11.4646 11.245 11.5304 11.2049C11.8283 11.0312 12.2491 10.7828 12.8317 10.6668C13.1113 10.615 13.519 10.6142 13.8315 10.8716C14.1306 11.1256 14.2062 11.4125 14.2699 11.6077C14.3006 11.7129 14.3211 11.7986 14.3397 11.8742C14.4819 12.5189 14.3357 12.5149 14.3295 12.9909Z" fill="black"/>
<path d="M19.4881 29.0418C6.727 33.9689 3.01943 30.6424 1.4881 25.2226C-1.03151 13.873 6.5928 11.9466 15.4145 13.5C17.5442 7.99688 18.1906 13.2955 21.0469 13.2955C24.1233 13.2955 23.2377 15.5306 26.8269 16.6482C27.8835 16.9772 27.4304 17.9769 27.0854 18.5211C28.8806 19.3555 31.1625 19.8225 32.8881 20.427C37.6445 19.311 46.7843 13.5732 41.3028 20.7883C36.7088 26.208 36.1984 26.7007 36.1983 31.1351C34.1688 37.0121 32.5281 27.1747 31.0045 26.5724C30.2175 26.2887 29.3975 26.1243 27.9026 26.6397C28.3804 26.9956 28.5276 27.3667 28.0312 27.6861C29.0521 28.1789 29.0521 29.657 27.0103 30.1497C25.9894 30.6424 27.3389 32.1205 24.9686 32.1205C23.3148 32.1205 21.484 30.2019 19.4881 29.0418Z" fill="white"/>
<path d="M19.4559 28.9894C6.67732 33.9817 2.96467 30.6112 1.43124 25.1197C1.21428 24.1308 1.07244 22.3515 1 21.5C4 26 7.5 24 23.4104 23C38.8209 20.0581 32.9863 31.9868 41.3005 17.1709C42.7827 16.7705 43.5162 16.9949 42.5896 18.6966C42.3144 19.2021 41.8926 19.838 41.3005 20.6267C36.7002 26.1182 36.189 26.6174 36.189 31.1104C34.1567 37.0652 32.5137 27.0977 30.9881 26.4874C30.2 26.1999 29.3788 26.0333 27.8819 26.5556C28.3604 26.9161 28.5078 27.2922 28.0107 27.6158C29.033 28.1151 29.033 29.6127 26.9884 30.112C25.9661 30.6112 27.3175 32.1089 24.9439 32.1089C23.2878 32.1089 21.4545 30.1649 19.4559 28.9894Z" fill="#E8E8E8"/>
<path d="M33 20.4666C31.262 19.8427 28.9197 19.3737 27.0854 18.5211C27.4304 17.9769 27.8835 16.9772 26.8269 16.6482C23.2377 15.5306 24.1233 13.2955 21.0469 13.2955C18.1906 13.2955 17.5442 7.99688 15.4145 13.5C15.1081 13.446 14.6843 13.4285 13.8514 13.2955C11.5 13.5 13 15.5 9 15.5C5 17 12.5 18.5 12.5 18.5C19 21.5 28.5 21.5 31 22C33.5 22.5 33 20.4666 33 20.4666Z" fill="#FFCBCB"/>
<path d="M21.0469 13.2955C17.9705 13.2955 17.4577 7.14888 14.8941 14.9718C13 17 22 19.5 26.5 19.5C30.5 22.1167 30.9769 20.5 31.6976 20.048C31.0674 19.8611 30.4015 19.6773 29.7371 19.4786C28.8179 19.2037 27.9014 18.9004 27.0854 18.5211C27.4304 17.9769 27.8835 16.9772 26.8269 16.6482C23.2377 15.5306 24.1233 13.2955 21.0469 13.2955Z" fill="#B20A0A"/>
<path d="M30 22C35.9398 21.6819 9.10594 17.452 15 20C15.1059 20.952 17.285 21.5405 19 22C21.4519 22.6569 21.5 20.5 25.5 22C27.5 22.5 27.9026 21.5467 30 22Z" fill="#B20A0A"/>
<path d="M27.8531 18.3356C27.9255 18.3232 28.031 18.3818 28.0898 18.4136C28.0909 18.4141 28.092 18.4147 28.0931 18.4153C28.107 18.4228 28.1208 18.4286 28.1369 18.4354C28.1755 18.4515 28.227 18.4732 28.329 18.5369C28.3615 18.5478 28.394 18.5591 28.4264 18.5707C28.775 18.696 29.1193 18.8425 29.4667 18.9904C29.4713 18.9916 29.476 18.9929 29.4807 18.9941C29.5718 19.0181 29.6851 19.0474 29.7515 19.0822C29.8359 19.1263 29.8921 19.1604 29.9381 19.1891C30.2166 19.3041 30.4982 19.414 30.7845 19.508C30.8746 19.5376 30.9647 19.5654 31.0556 19.5915C31.1396 19.6157 31.2236 19.6385 31.3078 19.6605C31.3592 19.6665 31.4085 19.6704 31.4541 19.674C31.5183 19.6791 31.5748 19.6835 31.6209 19.6931C31.7313 19.7159 31.848 19.7655 31.936 19.8031C31.9503 19.8092 31.9637 19.815 31.9762 19.8202C32.0492 19.8367 32.1228 19.8532 32.1966 19.8699C32.2004 19.8745 32.2043 19.8792 32.2082 19.884C32.2567 19.9439 32.3316 19.9665 32.4507 20.0037C32.5025 20.0198 32.5611 20.0383 32.6313 20.0647C32.6762 20.0815 32.694 20.1054 32.7085 20.1249C32.7128 20.1306 32.7168 20.1359 32.7211 20.1406C32.7358 20.1567 32.7584 20.1522 32.7851 20.147C32.8197 20.1403 32.8625 20.1326 32.9028 20.1666C33.03 20.2747 33.109 20.2601 33.1689 20.2488C33.1864 20.2455 33.2023 20.2426 33.2172 20.2432C33.2652 20.2451 33.3227 20.2824 33.3623 20.3192C33.394 20.3485 33.4718 20.3618 33.5363 20.366C33.5605 20.3676 33.5895 20.3791 33.6232 20.3928C33.6584 20.4071 33.6975 20.4233 33.7445 20.4341C33.8635 20.4617 33.9235 20.4779 33.9744 20.492C33.9888 20.496 34.0022 20.4999 34.0156 20.5036C34.0579 20.5155 34.1087 20.5333 34.1594 20.5517C34.222 20.5747 34.2847 20.599 34.3337 20.6141C34.4463 20.6856 34.5551 20.7628 34.662 20.8461C34.7153 20.8878 34.7525 20.9577 34.756 21.0348C34.7601 21.1124 34.7331 21.1915 34.6842 21.2577C34.6352 21.3239 34.5685 21.3732 34.4991 21.3987C34.4299 21.4243 34.3614 21.4226 34.3098 21.3974C34.2029 21.3446 34.0931 21.2968 33.9821 21.2498C33.8469 21.1926 33.709 21.1365 33.574 21.0768C33.4778 21.0343 33.3837 20.9927 33.286 20.9498C33.276 20.9454 33.2659 20.9409 33.2561 20.9366C33.1677 20.9233 33.077 20.9086 33.0166 20.8931C32.9669 20.8804 32.9353 20.8574 32.908 20.8376C32.8892 20.824 32.8725 20.812 32.8532 20.8061C32.8429 20.8029 32.8285 20.7991 32.8116 20.7948C32.743 20.7769 32.6214 20.7459 32.5228 20.6922C32.4785 20.6681 32.4286 20.6335 32.3805 20.6005C32.3131 20.5538 32.2489 20.5102 32.2109 20.5053C32.1436 20.4965 32.076 20.4649 32.0144 20.4366C31.9558 20.4097 31.904 20.3862 31.8701 20.3902C31.8292 20.3949 31.8002 20.3792 31.7569 20.3559C31.727 20.3398 31.6893 20.3197 31.6372 20.3008C31.5769 20.2788 31.5364 20.2549 31.5019 20.2346C31.4532 20.206 31.4165 20.1845 31.3527 20.1857C31.2816 20.187 31.2094 20.1801 31.1571 20.158C31.1335 20.148 31.1054 20.1407 31.076 20.133C31.0372 20.1229 30.9962 20.1122 30.961 20.0942C30.9321 20.0794 30.9109 20.0567 30.8925 20.0367C30.8868 20.0305 30.8812 20.0245 30.8758 20.0191C30.8514 20.0123 30.8269 20.0056 30.8024 19.9991C30.7977 20.0004 30.7928 20.002 30.7876 20.0035C30.7618 20.0115 30.73 20.0212 30.6943 20.0203C30.6378 20.019 30.5942 19.9972 30.5483 19.9741C30.5126 19.9562 30.4753 19.9375 30.4294 19.9271C30.398 19.9201 30.361 19.9162 30.3246 19.9124C30.2704 19.9068 30.2167 19.9011 30.1829 19.8851C30.1703 19.879 30.1616 19.8661 30.1531 19.8532C30.1531 19.8531 30.1531 19.8531 30.153 19.853C30.1524 19.8521 30.1519 19.8513 30.1513 19.8504C30.0626 19.8326 29.9743 19.8156 29.8853 19.7986C29.8771 19.7989 29.8688 19.7991 29.8606 19.7993C29.8205 19.8002 29.7815 19.8011 29.7535 19.8104C29.7232 19.8205 29.6569 19.8119 29.5869 19.8026C29.5411 19.7965 29.4938 19.7902 29.4539 19.7887C29.4306 19.7878 29.4132 19.7717 29.3952 19.7551C29.3785 19.7396 29.3614 19.7236 29.3386 19.7193C29.3272 19.7171 29.314 19.7175 29.3 19.718C29.2876 19.7184 29.2745 19.7189 29.2613 19.7175C29.2491 19.7163 29.2251 19.703 29.1943 19.6859C29.1753 19.6753 29.1537 19.6633 29.1307 19.6518C29.0648 19.6379 28.9991 19.6236 28.9332 19.6085C28.9171 19.6128 28.9019 19.6203 28.888 19.6317C28.8781 19.6399 28.8685 19.6504 28.8587 19.6612C28.8453 19.6758 28.8314 19.6909 28.8157 19.7014C28.8033 19.7096 28.7915 19.7107 28.7861 19.7038C28.7836 19.7006 28.7824 19.6958 28.7813 19.6914C28.7801 19.6864 28.779 19.682 28.7761 19.6811C28.7741 19.6806 28.771 19.6828 28.7673 19.6856C28.7613 19.6899 28.7535 19.6955 28.7452 19.6931C28.7143 19.6841 28.6805 19.6704 28.6472 19.6568C28.6102 19.6417 28.5741 19.6269 28.5439 19.6192C28.5101 19.6106 28.4669 19.5838 28.4237 19.5569C28.3937 19.5381 28.3632 19.5192 28.3362 19.5063C28.3097 19.4937 28.2789 19.4897 28.249 19.4858C28.2132 19.4812 28.1788 19.4766 28.155 19.4574C28.1502 19.4535 28.1476 19.4393 28.1443 19.4215C28.142 19.4088 28.1392 19.3944 28.1352 19.3805C28.1006 19.3681 28.0661 19.355 28.0319 19.3415C28.0301 19.3426 28.0283 19.3438 28.0264 19.345C28.0264 19.345 28.0264 19.3451 28.0263 19.3451C27.9843 19.3721 27.9264 19.4088 27.8833 19.358C27.8723 19.3451 27.8689 19.3275 27.8659 19.3117C27.8629 19.2961 27.8602 19.2823 27.851 19.2761C27.8405 19.269 27.8241 19.2716 27.8061 19.2744C27.7809 19.2783 27.7527 19.2826 27.7342 19.2614C27.7329 19.26 27.7316 19.2584 27.7302 19.2568C27.7168 19.2416 27.6969 19.219 27.6825 19.1835C27.6125 19.1481 27.5419 19.1105 27.4731 19.072C27.3585 19.0079 27.244 18.9395 27.132 18.8699C27.0771 18.8358 27.0371 18.7758 27.0221 18.702C27.0072 18.6281 27.0182 18.5469 27.0526 18.4738C27.087 18.4007 27.1422 18.3405 27.2066 18.3033C27.271 18.2663 27.3392 18.2557 27.3981 18.2722C27.4938 18.2991 27.5895 18.3247 27.6859 18.3505C27.6913 18.3509 27.6967 18.3514 27.702 18.352C27.7416 18.3562 27.7831 18.3486 27.8246 18.3409C27.8341 18.3391 27.8436 18.3373 27.8531 18.3356ZM16.0223 30.7453C15.6857 30.8887 15.023 31.06 14.6478 31.1471C14.6411 31.1487 14.6343 31.1503 14.6276 31.1519C14.5401 31.1725 14.4583 31.1929 14.363 31.2162C14.1337 31.2712 13.8103 31.3529 13.1495 31.4659C12.9536 31.5073 12.7607 31.5454 12.5707 31.5802C10.4876 31.9513 8.2681 32.0953 6.17372 31.3872C6.14831 31.3791 6.11988 31.3699 6.09263 31.3609C5.56796 31.1941 4.94077 30.8891 4.58737 30.6404C4.13458 30.3289 3.8626 30.0676 3.64982 29.8502C2.38804 28.6214 1.70947 26.986 1.25675 25.3764C1.2491 25.3491 1.2415 25.3218 1.23395 25.2944C1.23307 25.2915 1.231 25.2827 1.23028 25.2798C1.12159 24.7734 1.03552 24.3164 0.955688 23.8059C0.882242 23.335 0.821353 22.8383 0.783073 22.3665C0.752891 22.0845 0.729356 21.8077 0.71409 21.5637C0.692178 21.2186 0.686134 20.8892 0.693561 20.6383C0.709506 20.0024 0.817322 19.2999 0.947666 18.7811C0.968599 18.6957 0.989444 18.6161 1.00937 18.5433C1.1073 18.1355 1.23466 17.7309 1.401 17.3306C1.41526 17.3057 1.42984 17.2808 1.44481 17.2556C1.6324 16.9477 1.82618 16.5366 2.24154 15.9707C2.42567 15.7233 2.65326 15.4512 2.95704 15.1631C3.15311 14.9786 3.27131 14.9041 3.36641 14.843C3.39453 14.8252 3.42101 14.8087 3.44741 14.7915C3.53802 14.7327 3.62035 14.6551 3.72076 14.5662C3.85058 14.4515 4.01491 14.3141 4.25972 14.1911C5.04833 13.8072 5.39419 13.658 5.65614 13.5213C5.73393 13.483 5.8039 13.4497 5.87658 13.4201C6.11252 13.323 6.4716 13.2328 6.74109 13.1874C6.95911 13.148 7.37433 13.0415 7.70168 12.9674C7.82282 12.9393 7.98739 12.9131 8.18517 12.8865C8.39197 12.8588 8.62338 12.8322 8.87668 12.8012C9.51407 12.7251 9.85913 12.7095 10.1286 12.6945C10.2063 12.6906 10.2789 12.6874 10.3517 12.6845C10.5839 12.6752 10.8649 12.6712 11.1541 12.6734C11.5042 12.6759 11.8455 12.6868 12.1154 12.6953C12.7996 12.7513 13.4861 12.8371 14.1626 12.9429C14.5115 12.9974 14.84 13.0861 15.0746 13.1867C15.3098 13.2874 15.4338 13.3905 15.4195 13.4715C15.4052 13.5527 15.254 13.6061 15.002 13.6262C14.7504 13.6462 14.4172 13.6316 14.0735 13.591C13.3833 13.5093 12.6876 13.4493 11.9966 13.4154C11.1558 13.3742 10.3084 13.3704 9.47118 13.4173C8.88736 13.4501 8.3006 13.5107 7.7286 13.6071C7.66887 13.6171 7.60945 13.6275 7.55034 13.6383C7.07628 13.7476 6.6114 13.8894 6.28706 14.0001C6.02287 14.0897 5.82695 14.1515 5.66125 14.2073C5.54696 14.2459 5.44973 14.2809 5.3501 14.3262C5.29718 14.3502 5.22554 14.3841 5.14073 14.4265C4.79454 14.5958 4.22709 14.9296 3.75909 15.293C3.54935 15.4526 3.31356 15.6478 3.10279 15.8537C2.80133 16.1448 2.55659 16.457 2.45483 16.6285C2.27448 16.9271 2.07775 17.2796 1.93251 17.6015C1.78895 17.9176 1.69433 18.1894 1.65722 18.3613C1.6144 18.5643 1.56584 18.7197 1.49992 18.9746C1.45393 19.157 1.40637 19.356 1.36065 19.6595C1.30949 20.008 1.28055 20.2409 1.25696 20.4564C1.22584 20.7546 1.20914 20.9646 1.22965 21.3061C1.25289 21.6697 1.28647 22.0583 1.3041 22.3616C1.31169 22.4966 1.32654 22.6527 1.3449 22.8179C1.36926 23.0382 1.39945 23.2683 1.42087 23.4722C1.43883 23.6425 1.44543 23.7875 1.45242 23.9171C1.45461 23.9576 1.45687 23.9965 1.45955 24.0343C1.48435 24.1785 1.50728 24.3037 1.53347 24.4395C1.54012 24.4608 1.54729 24.4831 1.55478 24.5065C1.59243 24.6238 1.63965 24.7687 1.68821 24.9537C1.70718 25.0259 1.72473 25.0965 1.74129 25.1664L1.73768 25.1521C1.79892 25.3569 1.84879 25.5456 1.90574 25.7446C1.96475 25.9502 2.02897 26.1602 2.12203 26.3969C2.18479 26.5564 2.26507 26.7374 2.3487 26.9118C2.47275 27.1717 2.60693 27.4197 2.69542 27.5966C2.72833 27.6627 2.75014 27.7228 2.77225 27.7821C2.77233 27.7823 2.77241 27.7826 2.7725 27.7829C2.774 27.7869 2.77553 27.7909 2.77703 27.7949C3.02069 28.208 3.29839 28.5963 3.61497 28.9487C3.64369 28.978 3.67299 29.0073 3.70226 29.0362C3.84502 29.1771 3.99133 29.3053 4.09444 29.3786C4.20587 29.4591 4.46677 29.6792 4.76779 29.8746C4.96327 30.003 5.17507 30.1221 5.35365 30.2067C5.45906 30.2569 5.5514 30.315 5.64857 30.3725C5.7391 30.4262 5.83686 30.4806 5.94794 30.5231C6.0028 30.5441 6.06379 30.5635 6.12969 30.5833C6.18772 30.6007 6.24967 30.6185 6.31477 30.638C6.3774 30.6568 6.50189 30.7047 6.67276 30.7607C6.77783 30.7952 6.90198 30.8327 7.02649 30.8658C7.3698 30.9389 7.71376 30.9891 8.06824 31.0222C8.14074 31.021 8.20472 31.0153 8.25601 31.0048C8.29281 30.9973 8.32455 30.987 8.35716 30.9763C8.40155 30.9618 8.44746 30.9467 8.51031 30.936C8.55904 30.9277 8.61848 30.9265 8.65362 30.9332C8.67061 30.9364 8.68358 30.9413 8.69538 30.9457C8.7089 30.9508 8.72101 30.9553 8.73606 30.9559C8.74691 30.9563 8.75836 30.9537 8.77245 30.9506C8.79496 30.9455 8.8242 30.939 8.86857 30.9403C9.03148 30.9451 9.23345 30.9503 9.41099 30.9509C9.61368 30.9519 9.82273 30.9472 9.98445 30.9367C10.1602 30.9254 10.4183 30.9199 10.685 30.906C10.8612 30.8974 11.0421 30.8853 11.1995 30.8691C11.3549 30.8531 11.5137 30.8249 11.6621 30.7967C11.8424 30.7625 12.0191 30.7264 12.1743 30.7099C12.2051 30.7067 12.2485 30.7118 12.2962 30.7192C12.3307 30.7243 12.3706 30.7301 12.4158 30.7337C12.6034 30.6993 12.7945 30.6626 12.9891 30.6232C12.9956 30.6201 13.0023 30.617 13.009 30.6138C13.0092 30.6137 13.0093 30.6136 13.0094 30.6136C13.1673 30.5399 13.3523 30.4448 13.6626 30.4058C13.741 30.3959 13.7931 30.3991 13.8401 30.4019C13.8864 30.4047 13.9278 30.4071 13.9853 30.3956C14.0525 30.3821 14.1201 30.3568 14.1978 30.3278C14.3062 30.2874 14.4281 30.2414 14.5587 30.2203C14.5677 30.2189 14.5773 30.2173 14.5873 30.2157C14.6821 30.2002 14.8234 30.1764 14.9699 30.1646C15.3638 30.0629 15.7767 29.9497 16.1761 29.8347C16.8413 29.6432 17.5025 29.438 18.1787 29.213C18.4965 29.1077 18.8115 29.0307 19.0614 29.0008C19.3107 28.9713 19.4696 28.9933 19.4985 29.0688C19.5278 29.1441 19.425 29.2678 19.2171 29.4116C19.0086 29.5556 18.7166 29.705 18.401 29.8284C17.861 30.0384 17.36 30.226 16.8144 30.4166C16.7869 30.4273 16.7592 30.4379 16.7317 30.4483C16.525 30.5266 16.3499 30.6053 16.1551 30.6887C16.1108 30.7077 16.0666 30.7266 16.0223 30.7453ZM18.8186 28.166C19.0089 28.2046 19.3247 28.3789 19.4914 28.4819C19.4945 28.4837 19.4976 28.4856 19.5007 28.4874C19.5408 28.5118 19.5785 28.5334 19.6228 28.5591C19.7281 28.6209 19.872 28.704 20.1465 28.9068C20.2303 28.959 20.3137 29.0125 20.3956 29.0667C21.2821 29.6521 22.073 30.3276 22.8946 30.908C22.9054 30.9147 22.9164 30.9216 22.9275 30.9285C23.1395 31.0612 23.4098 31.2145 23.5706 31.3137C23.7774 31.4425 23.9179 31.5214 24.0368 31.5842C24.3419 31.7195 24.657 31.8125 24.9686 31.8236C25.3982 31.8376 25.8694 31.7994 26.0848 31.591C26.2029 31.4827 26.2491 31.2908 26.2747 31.0375C26.3033 30.8111 26.3118 30.5148 26.5041 30.2354C26.6064 30.0765 26.7502 29.9631 26.8845 29.8889C26.8956 29.8829 26.9303 29.8717 26.9424 29.8682C26.9456 29.8672 26.9488 29.8661 26.9519 29.8651C27.1068 29.8139 27.2338 29.7617 27.3418 29.718C27.5974 29.617 27.8688 29.4822 28.0359 29.3481C28.0629 29.3271 28.0884 29.3056 28.1105 29.2857C28.2246 29.1656 28.3092 29.0287 28.3493 28.8905C28.3554 28.8823 28.3616 28.8741 28.3677 28.8656C28.441 28.7603 28.4731 28.5869 28.3701 28.3596C28.3239 28.2616 28.2489 28.1545 28.1276 28.0526C28.0495 27.9882 28.0094 27.9479 27.9771 27.9142C27.9673 27.9043 27.9579 27.8952 27.9477 27.8867C27.9446 27.8841 27.9413 27.8817 27.938 27.8794C27.7649 27.8039 27.7604 27.614 27.9151 27.5057C27.9529 27.4887 27.9806 27.4559 28.0044 27.4188C28.0397 27.3647 28.0596 27.307 28.0856 27.2757C28.1358 27.2254 28.0798 27.1022 28.0151 27.0407C27.9501 26.9743 27.8832 26.9405 27.8266 26.9134C27.7937 26.898 27.7622 26.884 27.7326 26.8676C27.6362 26.8134 27.5081 26.7147 27.4078 26.6352C27.3369 26.5778 27.177 26.5066 27.0368 26.4598C27.0221 26.4548 27.0076 26.4501 26.9934 26.4456C26.9372 26.4278 26.8654 26.3954 26.7797 26.3586C26.6906 26.3204 26.5873 26.278 26.472 26.2423C26.1813 26.1529 26.0239 26.1125 25.8981 26.0791C25.8622 26.0697 25.8287 26.0611 25.7952 26.0527C25.6894 26.0261 25.5584 25.9918 25.4254 25.9594C25.2661 25.9206 25.1041 25.8847 24.9793 25.8633C24.6652 25.7736 24.3483 25.6927 24.0332 25.6323C23.8709 25.6011 23.7216 25.548 23.6117 25.4802C23.502 25.4123 23.4373 25.3341 23.4372 25.2515C23.436 25.1695 23.5069 25.0884 23.6398 25.0357C23.772 24.9828 23.9511 24.9647 24.1305 24.9853C24.4903 25.0266 24.843 25.0898 25.192 25.1679C25.6172 25.2636 26.0363 25.3823 26.4475 25.5309C26.7354 25.6353 27.0197 25.7519 27.2996 25.8879C27.3018 25.889 27.3041 25.8901 27.3063 25.8912C27.3331 25.9043 27.3597 25.9175 27.386 25.9307C27.6307 26.0271 27.8739 26.1456 28.0407 26.2532C28.1791 26.342 28.27 26.4309 28.3453 26.5147C28.3968 26.5725 28.4418 26.6285 28.4899 26.6874C28.5159 26.7195 28.5517 26.7642 28.5913 26.8292C28.6633 26.9437 28.7761 27.1975 28.6826 27.4813C28.5885 27.7567 28.3933 27.9017 28.2325 27.999L28.1929 27.3511C28.2119 27.3613 28.2305 27.3717 28.2487 27.3825C28.3993 27.4709 28.5578 27.6077 28.6761 27.766C28.8508 27.9919 28.9231 28.2528 28.9568 28.3804C29.025 28.607 28.9946 28.891 28.9052 29.1041C28.8228 29.3092 28.7073 29.454 28.6528 29.5439C28.5881 29.6493 28.5069 29.7244 28.3856 29.8132C28.2998 29.8754 28.1934 29.9445 28.0452 30.027C27.8728 30.1217 27.7461 30.163 27.6355 30.1977C27.4831 30.2433 27.367 30.2715 27.2023 30.337C27.1588 30.3542 27.1136 30.3706 27.0673 30.3859L27.116 30.3685C27.0227 30.4275 26.965 30.4896 26.9208 30.5466C26.8939 30.5808 26.8709 30.6291 26.8531 30.6889C26.8291 30.7679 26.8145 30.8675 26.7952 30.9667C26.7792 31.0485 26.756 31.1205 26.7333 31.1852C26.7263 31.2055 26.7194 31.225 26.7128 31.2441C26.7022 31.3179 26.6885 31.3945 26.6671 31.4728C26.6661 31.4862 26.6649 31.5004 26.6633 31.5153C26.6551 31.5896 26.6387 31.688 26.5776 31.7995C26.4796 31.9772 26.3222 32.087 26.1684 32.1547C26.05 32.2071 25.9199 32.2435 25.7839 32.2782C25.6898 32.3023 25.5807 32.327 25.4788 32.3451C25.321 32.3731 25.1686 32.3882 25.0648 32.3839C25.0302 32.3825 24.9991 32.3749 24.9686 32.3663C24.9639 32.365 24.9592 32.3637 24.9545 32.3624C24.9544 32.3623 24.9542 32.3622 24.9541 32.3622C24.9517 32.3615 24.9493 32.3608 24.9469 32.3601C24.6746 32.3653 24.4084 32.325 24.1529 32.2585C24.1304 32.2545 24.1076 32.2502 24.0851 32.2456C23.9735 32.2232 23.8702 32.1972 23.798 32.1867C23.7186 32.1755 23.5384 32.1115 23.3555 32.032C23.235 31.9802 23.1138 31.9232 23.0136 31.8781C22.9546 31.8516 22.9076 31.8123 22.8604 31.7719C22.8161 31.734 22.7708 31.6947 22.7142 31.6627C22.6858 31.6467 22.6548 31.6324 22.6211 31.6166C22.5915 31.6027 22.5601 31.5878 22.5283 31.5705C22.4988 31.5544 22.4383 31.5087 22.3638 31.4508C22.3174 31.4147 22.2647 31.3734 22.2087 31.3304C22.0536 31.2329 21.8989 31.132 21.7467 31.0306C21.7103 31.0158 21.6762 31.0059 21.6464 31.0031C21.6249 31.0011 21.6044 31.0023 21.5834 31.0035C21.5547 31.0052 21.5251 31.0069 21.4906 31.0003C21.4636 30.9952 21.437 30.9817 21.4238 30.9662C21.4177 30.959 21.4144 30.9515 21.4115 30.9446C21.4081 30.9368 21.4051 30.9297 21.3985 30.9251C21.3938 30.9218 21.3871 30.9208 21.3789 30.9195C21.3657 30.9175 21.3489 30.9149 21.33 30.9015C21.2597 30.8518 21.1817 30.7922 21.1054 30.7338C21.0212 30.6692 20.9387 30.6061 20.8704 30.5596C20.7941 30.5075 20.6944 30.4214 20.5943 30.3358C20.5247 30.2762 20.4547 30.2169 20.3925 30.1692C20.3316 30.1225 20.2625 30.0822 20.1956 30.0437C20.1154 29.9975 20.0379 29.9537 19.9812 29.9034C19.9697 29.8933 19.961 29.8724 19.95 29.8463C19.9421 29.8277 19.9331 29.8065 19.9212 29.7846C19.8413 29.7318 19.7611 29.6792 19.6813 29.6275C19.6776 29.6271 19.6737 29.6267 19.6699 29.6264C19.6698 29.6264 19.6697 29.6264 19.6697 29.6264C19.5824 29.6183 19.4633 29.6078 19.3531 29.5042C19.325 29.4779 19.312 29.4525 19.3004 29.4298C19.289 29.4075 19.2787 29.3876 19.256 29.3716C19.2303 29.3534 19.1941 29.3423 19.1547 29.3305C19.0997 29.314 19.0375 29.2959 18.9884 29.2546C18.985 29.2518 18.9814 29.2488 18.9776 29.2456C18.9417 29.2158 18.8891 29.1725 18.8415 29.1173C18.6664 29.0204 18.4898 28.9298 18.3104 28.848C18.0115 28.7117 17.7034 28.5996 17.3877 28.5277C17.2344 28.4925 17.0893 28.4405 16.9789 28.3742C16.8688 28.3078 16.8016 28.2309 16.8014 28.1499C16.8012 28.0694 16.8705 27.9898 17.0016 27.9355C17.1321 27.8812 17.3141 27.8603 17.497 27.8827C17.7961 27.9189 18.0878 27.9844 18.3719 28.0717C18.387 28.0753 18.4021 28.079 18.4172 28.0829C18.5288 28.1116 18.6379 28.1307 18.7445 28.1511C18.7692 28.1559 18.7939 28.1608 18.8186 28.166ZM35.3737 19.1215C35.6282 18.9838 36.1553 18.7933 36.4448 18.6862C36.4501 18.6842 36.4554 18.6822 36.4607 18.6802C36.5295 18.6549 36.5939 18.6296 36.6694 18.5997C36.8491 18.5288 37.0937 18.4317 37.6089 18.2487C37.7574 18.1874 37.9054 18.1267 38.0525 18.0672C38.8501 17.7456 39.663 17.4264 40.5027 17.1611C40.93 17.0288 41.3445 16.9101 41.8183 16.8387C42.0608 16.8055 42.3032 16.7808 42.5887 16.825C42.7396 16.8514 42.9008 16.8955 43.0649 17.0192C43.2277 17.1368 43.3446 17.3573 43.3695 17.5269C43.3768 17.5634 43.3821 17.6008 43.3854 17.6388C43.4075 18.2822 43.0869 18.7764 42.9265 19.0683C42.7978 19.2819 42.7109 19.4057 42.614 19.5452C42.5184 19.6817 42.4343 19.7947 42.3659 19.8839C42.1011 20.2594 41.8438 20.5962 41.5465 20.9734C41.5446 20.9761 41.5383 20.9836 41.5363 20.9862C40.9257 21.6781 40.3128 22.3741 39.7201 23.0727C39.4427 23.4001 39.1722 23.7253 38.9049 24.0593C38.6622 24.363 38.4209 24.6749 38.1931 24.9897C38.0681 25.1744 37.9512 25.3576 37.848 25.5277C37.705 25.7634 37.5841 25.9805 37.4865 26.1574C37.2494 26.5796 37.014 27.0725 36.8837 27.4549C36.8619 27.5172 36.8423 27.5764 36.8249 27.6317C36.7411 27.942 36.6825 28.2596 36.6421 28.5824C36.6358 28.6034 36.6295 28.6247 36.6231 28.6465C36.5436 28.9161 36.5075 29.2619 36.4847 29.8097C36.4747 30.0537 36.468 30.3263 36.4614 30.6561C36.4573 30.869 36.4403 30.9743 36.4262 31.066C36.4226 31.0898 36.4191 31.1124 36.4163 31.1351C36.4167 31.1503 36.4089 31.1917 36.4043 31.2062C36.403 31.209 36.4017 31.2117 36.4004 31.2144C36.3597 31.2997 36.3381 31.3939 36.3125 31.5003C36.2802 31.635 36.2383 31.8021 36.1249 32.0061C35.767 32.6362 35.5668 32.9205 35.3306 33.1177C35.2589 33.1741 35.1898 33.2178 35.0952 33.2509C34.9542 33.3047 34.7352 33.3032 34.5721 33.2342C34.3977 33.1648 34.2785 33.0607 34.1863 32.9658C34.036 32.8169 33.7958 32.5311 33.6306 32.2968C33.5712 32.2159 33.4934 32.084 33.4171 31.943C33.3352 31.792 33.2464 31.6171 33.1475 31.4293C32.9026 30.9605 32.7864 30.7033 32.6915 30.5028C32.6646 30.4449 32.6395 30.3908 32.6145 30.3367C32.5357 30.1666 32.4422 29.9542 32.348 29.7396C32.2357 29.4834 32.1224 29.2255 32.0301 29.0292C31.8249 28.5129 31.6202 27.9985 31.3739 27.5309C31.2484 27.293 31.1357 27.066 31.0644 26.915C30.9953 26.7614 30.9465 26.6708 30.9681 26.5901C30.9811 26.5089 31.1593 26.4698 31.3736 26.5943C31.5844 26.7109 31.7924 26.9523 31.944 27.2098C32.2503 27.7338 32.4879 28.2693 32.7233 28.8045C33.0076 29.4564 33.2738 30.109 33.5554 30.7425C33.7538 31.1861 33.9587 31.6221 34.2036 32.0152C34.2296 32.0565 34.2554 32.0962 34.281 32.1341C34.5033 32.4438 34.8061 32.6392 34.8603 32.6051C34.9052 32.6068 35.0009 32.5642 35.0782 32.5C35.1351 32.4539 35.1887 32.3974 35.2307 32.3384C35.2539 32.306 35.2889 32.2532 35.3263 32.1897C35.4712 31.9512 35.6684 31.4885 35.8477 31.014L35.8274 31.1351C35.828 31.1169 35.8286 31.0988 35.8293 31.0809C35.8383 30.8469 35.8575 30.5769 35.8791 30.3232C35.9098 29.9515 35.948 29.6133 35.9528 29.4346C35.9598 29.1279 36.0024 28.7763 36.0577 28.4647C36.1094 28.1685 36.1724 27.9114 36.1946 27.7624C36.2215 27.5828 36.2683 27.4352 36.3491 27.2206C36.4058 27.072 36.4792 26.8911 36.5876 26.6508C36.7144 26.3723 36.8247 26.1897 36.9203 26.0352C37.0563 25.8186 37.1619 25.6631 37.3016 25.4118C37.4534 25.1388 37.6364 24.8577 37.7918 24.6578C37.8658 24.5624 37.9427 24.4582 38.0273 24.3459C38.1428 24.1926 38.2535 24.049 38.3735 23.9093C38.4662 23.8022 38.5541 23.718 38.6331 23.6424C38.6578 23.6188 38.6818 23.5959 38.7031 23.5753C38.7739 23.4875 38.8465 23.3979 38.9207 23.3065C38.9308 23.2901 38.9414 23.2728 38.9525 23.2546C39.0056 23.1665 39.0699 23.06 39.1646 22.9316C39.3138 22.7294 39.4573 22.5716 39.6137 22.4001C39.7305 22.2725 39.8614 22.129 39.9944 21.9672C40.0848 21.8573 40.1866 21.7268 40.2905 21.5941C40.4359 21.4075 40.5865 21.2152 40.7004 21.0902C40.7415 21.0452 40.7833 21.0114 40.8249 20.9778C40.8251 20.9777 40.8253 20.9775 40.8255 20.9774C40.8284 20.9751 40.8312 20.9728 40.834 20.9705C40.9254 20.8585 41.0186 20.7442 41.1134 20.6277L41.1051 20.6381C41.2682 20.4148 41.4171 20.2038 41.5522 20.005C41.5675 19.9792 41.5896 19.9437 41.6084 19.9128C41.7029 19.7582 41.7851 19.6167 41.8282 19.522C41.8664 19.4328 42.0402 19.151 42.1697 18.9073C42.2689 18.7244 42.3534 18.5504 42.4123 18.4024C42.4502 18.3089 42.4937 18.234 42.5326 18.1627C42.5677 18.1001 42.6105 18.005 42.6254 17.9318C42.6331 17.8951 42.638 17.8514 42.639 17.8063C42.6397 17.7682 42.6366 17.7352 42.6326 17.7097C42.6292 17.676 42.6244 17.6384 42.6215 17.6279C42.6212 17.6194 42.5927 17.5913 42.5307 17.5725C42.3505 17.5341 42.0458 17.5755 41.7877 17.634C41.7321 17.6544 41.6791 17.6783 41.6446 17.7017C41.6201 17.7185 41.5999 17.7366 41.5789 17.7553C41.5504 17.7808 41.5207 17.8074 41.4762 17.8343C41.4415 17.8553 41.3974 17.872 41.3652 17.8759C41.3502 17.8777 41.338 17.8767 41.3268 17.8758C41.314 17.8749 41.3042 17.8736 41.2924 17.877C41.2841 17.8795 41.2762 17.885 41.2664 17.8917C41.2508 17.9024 41.2306 17.9163 41.1959 17.9268C41.068 17.9655 40.9088 18.013 40.7673 18.0575C40.6045 18.1086 40.4385 18.1639 40.3159 18.2104C40.1752 18.2634 39.9645 18.3287 39.7593 18.3944C39.6138 18.4411 39.4666 18.4896 39.3455 18.5334C39.2257 18.5768 39.1013 18.6328 38.9826 18.6868C38.8425 18.7506 38.7059 18.8132 38.5827 18.8519C38.5578 18.8598 38.5231 18.8603 38.4795 18.861C38.4489 18.8614 38.4142 18.8618 38.3753 18.8649C38.2255 18.9255 38.0742 18.9864 37.9216 19.0475C37.9168 19.0512 37.9121 19.055 37.9073 19.0589C37.9072 19.0589 37.9072 19.059 37.9071 19.0591C37.7988 19.1461 37.65 19.2655 37.3978 19.3328C37.334 19.3498 37.29 19.3511 37.2504 19.3523C37.2115 19.3536 37.1768 19.3546 37.1315 19.3702C37.0801 19.3879 37.0237 19.4196 36.9622 19.454C36.8758 19.5024 36.779 19.5565 36.6717 19.5852C36.6643 19.5872 36.6564 19.5893 36.6482 19.5915C36.5705 19.6125 36.4554 19.6434 36.3359 19.6606C36.0071 19.7824 35.6791 19.9 35.3459 20.0139C34.7903 20.2035 34.2371 20.3784 33.6616 20.5294C33.3813 20.6028 33.1122 20.6336 32.8926 20.6218C32.6785 20.6086 32.5589 20.5506 32.5434 20.4716C32.5285 20.3919 32.6162 20.2969 32.7939 20.1937C32.9773 20.0893 33.2127 19.9889 33.4769 19.9018C33.9052 19.7607 34.3297 19.6014 34.7514 19.4352C34.7734 19.4255 34.7955 19.4157 34.8176 19.4061C34.9812 19.3345 35.1247 19.2568 35.2721 19.1767C35.3059 19.1584 35.3397 19.1399 35.3737 19.1215ZM32.5883 27.5907C32.5352 27.6198 32.4495 27.5853 32.4031 27.5654C32.4023 27.5651 32.4014 27.5647 32.4006 27.5644C32.3896 27.5597 32.379 27.5567 32.3665 27.5531C32.3373 27.5446 32.296 27.5329 32.2184 27.4866C32.1938 27.4809 32.1699 27.4749 32.1456 27.468C31.8826 27.3941 31.641 27.2727 31.4162 27.1451C31.4131 27.1441 31.41 27.1431 31.4068 27.1421C31.3449 27.1226 31.2703 27.0989 31.2294 27.0679C31.1777 27.0286 31.1447 26.998 31.1177 26.9722C30.9451 26.8727 30.7742 26.7805 30.5962 26.7159C30.54 26.6955 30.4844 26.6782 30.427 26.6639C30.3751 26.6509 30.3218 26.6401 30.269 26.6318C30.237 26.6339 30.2061 26.6383 30.1775 26.6427C30.1369 26.6489 30.103 26.6554 30.0747 26.6552C30.0063 26.6545 29.9346 26.6326 29.8775 26.6175C29.8681 26.615 29.86 26.6128 29.852 26.6108C29.8074 26.613 29.7616 26.6165 29.7161 26.6211C29.7133 26.6178 29.7104 26.6144 29.7074 26.6109C29.6707 26.5671 29.6213 26.5669 29.5458 26.5695C29.5133 26.5706 29.4753 26.5724 29.4293 26.5719C29.3991 26.5717 29.3841 26.5557 29.3708 26.5428C29.3669 26.539 29.3633 26.5354 29.3596 26.5326C29.3471 26.5229 29.3356 26.5353 29.3221 26.55C29.3045 26.5691 29.2839 26.5921 29.2513 26.5764C29.1494 26.5264 29.111 26.5739 29.0833 26.6092C29.0751 26.6196 29.0677 26.629 29.0595 26.6349C29.0344 26.6537 28.9932 26.6455 28.9594 26.631C28.9329 26.6193 28.8858 26.6441 28.854 26.671C28.8421 26.6811 28.824 26.6849 28.8025 26.6896C28.7802 26.6944 28.7542 26.7002 28.7279 26.7149C28.6599 26.7524 28.6285 26.7711 28.6004 26.7868C28.5926 26.7912 28.5852 26.7953 28.5779 26.7995C28.5547 26.8128 28.525 26.8267 28.4946 26.8411C28.4583 26.8583 28.4245 26.8754 28.3983 26.893C28.3216 26.9045 28.2409 26.916 28.1645 26.9275C28.1245 26.9336 28.0758 26.9109 28.0284 26.8627C27.9809 26.8144 27.9388 26.7449 27.912 26.6671C27.8851 26.5893 27.8756 26.5085 27.8855 26.4408C27.8953 26.3732 27.9238 26.3247 27.963 26.3051C28.0402 26.2663 28.1239 26.2269 28.2055 26.1927C28.3019 26.1518 28.4119 26.1137 28.5143 26.0895C28.5903 26.0715 28.6665 26.0571 28.7406 26.0461C28.748 26.045 28.7566 26.0438 28.7645 26.0427C28.8258 26.0103 28.8868 25.9812 28.9305 25.9677C28.9657 25.9566 28.9974 25.963 29.022 25.9689C29.0393 25.9729 29.0545 25.9766 29.0689 25.9738C29.0766 25.9723 29.0871 25.9697 29.0997 25.9666C29.1495 25.9541 29.2422 25.9337 29.3249 25.9476C29.361 25.9537 29.4062 25.9683 29.4474 25.983C29.507 26.0039 29.5583 26.025 29.5868 26.0179C29.635 26.0055 29.6898 26.016 29.7368 26.0262C29.7833 26.036 29.8231 26.0454 29.8466 26.033C29.875 26.0183 29.8971 26.0264 29.9315 26.039C29.9553 26.0478 29.9842 26.0587 30.0234 26.0662C30.0685 26.0749 30.0996 26.0905 30.1258 26.1039C30.1627 26.1228 30.1895 26.1372 30.2348 26.1254C30.2864 26.1125 30.339 26.1087 30.3765 26.1231C30.3934 26.1297 30.4141 26.1333 30.4354 26.1372C30.4637 26.1423 30.4932 26.148 30.5178 26.1618C30.5381 26.1731 30.5523 26.1931 30.5646 26.2109C30.5685 26.2164 30.5721 26.2217 30.5758 26.2265C30.593 26.2307 30.6101 26.235 30.6273 26.2391C30.6307 26.2374 30.6343 26.2354 30.6381 26.2334C30.6572 26.2234 30.6806 26.2111 30.7064 26.2091C30.7473 26.206 30.7769 26.2243 30.8076 26.2437C30.8314 26.2589 30.8561 26.2748 30.8878 26.2823C30.9094 26.2874 30.9352 26.2891 30.9609 26.291C30.9989 26.2938 31.0365 26.297 31.0582 26.3111C31.0664 26.3164 31.0707 26.3286 31.0748 26.3407C31.0748 26.3408 31.0749 26.3408 31.0749 26.3409C31.0752 26.3417 31.0754 26.3425 31.0757 26.3433C31.1359 26.3568 31.1958 26.3701 31.2557 26.3832C31.2615 26.3827 31.2673 26.3822 31.2731 26.3817C31.3014 26.3793 31.3289 26.3771 31.35 26.3672C31.373 26.3564 31.4181 26.3623 31.465 26.3685C31.4958 26.3725 31.5276 26.3767 31.5549 26.3764C31.5708 26.3763 31.58 26.3909 31.5895 26.406C31.5984 26.4201 31.6075 26.4346 31.6224 26.4377C31.6299 26.4392 31.639 26.4381 31.6487 26.4369C31.6573 26.4359 31.6663 26.4348 31.6751 26.4354C31.6834 26.436 31.6974 26.4474 31.7155 26.462C31.7267 26.471 31.7394 26.4811 31.7532 26.4908C31.7959 26.5 31.8381 26.5092 31.8799 26.5183C31.8913 26.5128 31.9026 26.5044 31.9135 26.4923C31.9213 26.4836 31.9292 26.4727 31.9372 26.4615C31.9482 26.4463 31.9596 26.4306 31.9715 26.4191C31.9808 26.4101 31.9887 26.408 31.9914 26.4141C31.9926 26.4169 31.9927 26.4215 31.9928 26.4256C31.9929 26.4303 31.993 26.4345 31.9948 26.435C31.996 26.4353 31.9984 26.4328 32.0012 26.4299C32.0057 26.4251 32.0116 26.4189 32.0166 26.4204C32.0354 26.426 32.0556 26.4357 32.0755 26.4451C32.0975 26.4556 32.1194 26.4658 32.138 26.4696C32.1585 26.4737 32.1831 26.494 32.2082 26.5141C32.2257 26.5281 32.2435 26.5421 32.2598 26.5506C32.2755 26.5588 32.2947 26.558 32.3133 26.557C32.3357 26.5559 32.3572 26.5547 32.3711 26.5692C32.3739 26.5721 32.3746 26.5854 32.3756 26.6019C32.3764 26.6137 32.3772 26.6271 32.379 26.6397C32.4004 26.6458 32.4212 26.652 32.4423 26.6587C32.4435 26.6572 32.4447 26.6558 32.446 26.6543C32.446 26.6542 32.446 26.6542 32.446 26.6542C32.4739 26.6204 32.5111 26.5739 32.5368 26.6139C32.5434 26.6241 32.545 26.6402 32.5465 26.6547C32.548 26.6689 32.5493 26.6817 32.5549 26.6857C32.5613 26.6902 32.5716 26.6841 32.5827 26.6775C32.5984 26.6683 32.6158 26.6579 32.6273 26.674C32.6281 26.6751 32.6289 26.6763 32.6298 26.6775C32.6382 26.689 32.6507 26.706 32.6605 26.7366C32.7052 26.754 32.7486 26.7717 32.7941 26.7899C32.8691 26.8201 32.9442 26.8505 33.021 26.8792C33.0577 26.8932 33.09 26.9353 33.1114 26.9989C33.1327 27.0625 33.1411 27.1419 33.1326 27.2222C33.1242 27.3025 33.099 27.3784 33.0613 27.4353C33.0237 27.4921 32.9769 27.5245 32.9326 27.5275C32.8604 27.5321 32.7844 27.5347 32.7123 27.5354C32.7083 27.5364 32.7044 27.5373 32.7004 27.5382C32.6702 27.5442 32.6398 27.5617 32.6093 27.579C32.6023 27.5829 32.5953 27.5869 32.5883 27.5907ZM14.9945 13.2691C15.0146 13.1099 15.1381 12.8484 15.2151 12.6938C15.2164 12.6911 15.2177 12.6884 15.2191 12.6857C15.2365 12.6506 15.2517 12.6173 15.2693 12.579C15.3086 12.4949 15.3739 12.3489 15.524 12.1048C15.5573 12.0366 15.6043 11.9456 15.6456 11.8703C15.8843 11.4643 16.1124 11.0233 16.6811 10.7015C16.9681 10.539 17.4064 10.541 17.6798 10.6765C17.9619 10.8028 18.1555 10.9766 18.3296 11.1396C18.339 11.1476 18.349 11.1562 18.3581 11.164C18.5388 11.3197 18.7391 11.5154 18.8519 11.6471C18.9935 11.8135 19.0859 11.9266 19.1628 12.0185C19.6305 12.5042 20.1588 12.9209 20.7784 13.0129C20.8664 13.0264 20.9545 13.0338 21.0469 13.0347C21.1778 13.036 21.2911 13.0397 21.4219 13.0479C21.6316 13.0613 21.8499 13.0871 22.0629 13.1317C22.1914 13.1514 22.3087 13.174 22.4233 13.2034C22.5787 13.2427 22.7192 13.293 22.8292 13.3464C23.0957 13.4722 23.35 13.6918 23.5109 13.8619C23.5376 13.8896 23.5623 13.916 23.5849 13.9405C23.7195 14.067 23.8443 14.1981 23.9644 14.3261C23.9698 14.3371 23.9752 14.3484 23.9804 14.3595C24.0464 14.4993 24.1638 14.6379 24.3529 14.8411C24.4364 14.9301 24.5328 15.0296 24.6484 15.1428C24.7245 15.217 24.7516 15.263 24.7764 15.3032C24.7836 15.3149 24.7904 15.3258 24.7979 15.3363C24.8236 15.3723 24.8638 15.3912 24.9133 15.414C24.9783 15.4441 25.0526 15.4759 25.1288 15.5549C25.3716 15.8034 25.536 15.8431 25.646 15.8705C25.6794 15.8787 25.71 15.886 25.7399 15.8967C25.8386 15.9328 25.9543 16.0065 26.049 16.0718C26.1165 16.1208 26.2909 16.1784 26.4159 16.2045C26.4646 16.2152 26.5281 16.2391 26.605 16.2663C26.6801 16.2928 26.7695 16.3231 26.8717 16.3466C26.8873 16.3502 26.9026 16.3537 26.9175 16.357C27.1934 16.4242 27.3525 16.5206 27.4722 16.6154C27.5084 16.6445 27.5422 16.6757 27.5727 16.7073C27.6727 16.8084 27.7727 16.9712 27.8187 17.1447C27.8764 17.3526 27.867 17.554 27.8526 17.6948C27.7767 18.0568 27.6198 18.3425 27.4499 18.6079C27.362 18.743 27.2434 18.8506 27.129 18.9034C27.0148 18.956 26.9109 18.9563 26.8491 18.9019C26.7845 18.8507 26.7608 18.7553 26.7698 18.64C26.7793 18.5243 26.8241 18.3933 26.8877 18.2733C27.0163 18.0316 27.1175 17.774 27.1402 17.5503C27.1602 17.2656 27.0905 17.1564 26.8527 17.0382C26.8098 17.0186 26.7709 17.0039 26.7211 16.988C26.5247 16.926 26.3408 16.8601 26.1534 16.7837C26.1284 16.7735 26.1037 16.7632 26.0792 16.7529C25.8602 16.6864 25.6486 16.607 25.5059 16.5407C25.3837 16.4839 25.3055 16.4274 25.2399 16.3787C25.1926 16.3439 25.1522 16.313 25.1087 16.2872C25.0852 16.2732 25.0538 16.2551 25.0152 16.232C24.8546 16.1371 24.5924 15.9623 24.3906 15.7588C24.3006 15.6692 24.2049 15.5565 24.1196 15.4481C23.996 15.2918 23.8925 15.1446 23.8262 15.0811C23.7116 14.9715 23.6013 14.828 23.5061 14.7062C23.415 14.5895 23.3353 14.4914 23.2761 14.4492C23.2058 14.3992 23.1609 14.3436 23.0915 14.265C23.0431 14.2106 22.983 14.1451 22.891 14.0701C22.785 13.9843 22.7102 13.9246 22.6432 13.8749C22.5502 13.8068 22.4749 13.7585 22.3451 13.7279C22.2041 13.6955 22.0545 13.6681 21.9376 13.6364C21.8861 13.6222 21.8217 13.6107 21.7562 13.6013C21.6738 13.5892 21.5736 13.5785 21.4942 13.5641C21.426 13.5519 21.3676 13.5323 21.3141 13.5155C21.2986 13.5104 21.2837 13.5055 21.269 13.5012C21.2135 13.4992 21.1564 13.4982 21.0977 13.4982C21.0882 13.5007 21.0781 13.5035 21.0676 13.5064C21.0609 13.5082 21.054 13.5101 21.0469 13.5121C20.9922 13.5255 20.9263 13.5386 20.8483 13.5404C20.7093 13.5437 20.5813 13.5135 20.4592 13.4745C20.3619 13.4435 20.2633 13.406 20.1511 13.3669C20.0737 13.3399 19.9859 13.3096 19.9008 13.2755C19.7738 13.2249 19.6532 13.1655 19.5781 13.1112C19.5499 13.0909 19.5305 13.0664 19.5117 13.042C19.5116 13.0419 19.5115 13.0418 19.5114 13.0416C19.5102 13.04 19.5089 13.0383 19.5076 13.0367C19.3179 12.9201 19.1396 12.7894 18.9703 12.6534C18.9544 12.6429 18.9384 12.6322 18.9226 12.6215C18.8453 12.5693 18.7726 12.5181 18.7185 12.4904C18.6595 12.4603 18.5391 12.3597 18.4148 12.2521C18.335 12.1835 18.2502 12.1095 18.1819 12.056C18.1422 12.0251 18.1132 11.9819 18.0855 11.9401C18.0591 11.9005 18.0343 11.8624 17.9942 11.8279C17.9745 11.811 17.9514 11.7952 17.927 11.7789C17.9056 11.7646 17.8831 11.7499 17.8612 11.7338C17.841 11.719 17.7997 11.6745 17.7504 11.6247C17.7208 11.5945 17.6832 11.5583 17.6455 11.5258C17.5369 11.4539 17.4249 11.3984 17.3372 11.3789C17.3161 11.3821 17.2988 11.3904 17.2855 11.4032C17.2759 11.4124 17.268 11.4243 17.2607 11.4367C17.2508 11.4536 17.2421 11.4715 17.2336 11.486C17.2269 11.4973 17.221 11.5021 17.2165 11.4975C17.2143 11.4954 17.2125 11.4913 17.2107 11.4876C17.2086 11.4833 17.2066 11.4796 17.2048 11.4799C17.2034 11.4802 17.2024 11.4834 17.2012 11.4874C17.1993 11.4937 17.1973 11.5018 17.1923 11.5031C17.173 11.508 17.1479 11.5134 17.1123 11.5302C17.0735 11.5485 17.0308 11.5771 16.9944 11.6125C16.962 11.6437 16.8867 11.7039 16.8246 11.7623C16.7798 11.804 16.7297 11.8579 16.6927 11.9052C16.6592 11.9476 16.6312 12.0013 16.6037 12.057C16.5694 12.1256 16.5402 12.1896 16.5031 12.2344C16.4954 12.2437 16.4772 12.2505 16.4543 12.2595C16.438 12.2659 16.4193 12.2735 16.4003 12.2838C16.3631 12.3516 16.3198 12.4334 16.2872 12.4961C16.2875 12.4993 16.2878 12.5025 16.2882 12.5058C16.2882 12.5059 16.2882 12.5059 16.2882 12.506C16.2954 12.5803 16.3062 12.6811 16.2208 12.7876C16.1992 12.8144 16.1757 12.8293 16.156 12.8394C16.1367 12.8492 16.1194 12.8581 16.1078 12.8777C16.0947 12.8999 16.0897 12.9312 16.0843 12.9658C16.0766 13.0144 16.068 13.0696 16.034 13.1157C16.0317 13.1189 16.0292 13.1222 16.0266 13.1258C16.0021 13.1594 15.9657 13.2101 15.9161 13.2574C15.8457 13.4081 15.7742 13.5651 15.6995 13.7347C15.5849 13.9907 15.4603 14.2849 15.3523 14.5436C15.2984 14.6728 15.2181 14.7928 15.1274 14.8735C15.0365 14.9541 14.9433 14.9881 14.8666 14.9628C14.7898 14.9378 14.7346 14.8551 14.7105 14.735C14.6864 14.6149 14.6957 14.4684 14.7336 14.3308C14.7907 14.1204 14.8689 13.8575 14.9353 13.6416C14.9379 13.6296 14.9406 13.6177 14.9434 13.6058C14.9627 13.5219 14.9759 13.423 14.9867 13.3321C14.9892 13.311 14.9918 13.29 14.9945 13.2691Z" fill="black"/>
<circle cx="12" cy="24" r="1" transform="rotate(45 12 24)" fill="black"/>
<path d="M12.2066 25.0174L11.9431 24.5924L12.2066 25.0174ZM11.8967 24.9941L12.2282 24.6198L11.8967 24.9941ZM11.7537 24.8674L11.4222 25.2417L11.7537 24.8674ZM11.3279 24.4897L10.9954 24.8631L11.3279 24.4897ZM11.0483 24.2408L11.3808 23.8674L11.0483 24.2408ZM10.9383 23.9048L10.4432 23.8352L10.9383 23.9048ZM11.4267 23.1489L11.2814 22.6705L11.4267 23.1489ZM13.1064 23.9144L12.6182 23.8061L13.1064 23.9144ZM13.0607 24.1203L13.5488 24.2285L13.0607 24.1203ZM13.015 24.3262L12.5269 24.2179L13.015 24.3262ZM12.9038 24.5758L12.6262 24.16L12.9038 24.5758ZM12.7727 24.6633L12.4951 24.2475L12.7727 24.6633ZM12.3734 24.9139L12.11 24.489L11.9431 24.5924L12.2066 25.0174L12.47 25.4423L12.6368 25.3389L12.3734 24.9139ZM12.2066 25.0174L11.9431 24.5924C11.9536 24.5859 12.0042 24.5587 12.0831 24.5647C12.1635 24.5707 12.2133 24.6066 12.2282 24.6198L11.8967 24.9941L11.5652 25.3684C11.6755 25.4661 11.8245 25.5481 12.0082 25.5619C12.1904 25.5755 12.3483 25.5178 12.47 25.4423L12.2066 25.0174ZM11.8967 24.9941L12.2282 24.6198L12.0852 24.4931L11.7537 24.8674L11.4222 25.2417L11.5652 25.3684L11.8967 24.9941ZM11.7537 24.8674L12.0852 24.4931L11.9422 24.3665L11.6106 24.7408L11.2791 25.1151L11.4222 25.2417L11.7537 24.8674ZM11.6106 24.7408L11.9422 24.3665C11.8471 24.2823 11.7532 24.1989 11.6603 24.1162L11.3279 24.4897L10.9954 24.8631C11.0889 24.9464 11.1835 25.0303 11.2791 25.1151L11.6106 24.7408ZM11.3279 24.4897L11.6603 24.1162L11.5206 23.9918L11.1881 24.3652L10.8556 24.7387L10.9954 24.8631L11.3279 24.4897ZM11.1881 24.3652L11.5206 23.9918L11.3808 23.8674L11.0483 24.2408L10.7159 24.6143L10.8556 24.7387L11.1881 24.3652ZM11.0483 24.2408L11.3808 23.8674C11.3962 23.8811 11.4154 23.9061 11.4261 23.939C11.436 23.9691 11.432 23.9849 11.4335 23.9744L10.9383 23.9048L10.4432 23.8352C10.4039 24.1145 10.4785 24.4029 10.7159 24.6143L11.0483 24.2408ZM10.9383 23.9048L11.4335 23.9744L11.4632 23.7628L10.9681 23.6932L10.4729 23.6237L10.4432 23.8352L10.9383 23.9048ZM10.9681 23.6932L11.4632 23.7628L11.4929 23.5513L10.9978 23.4817L10.5027 23.4121L10.4729 23.6237L10.9681 23.6932ZM10.9978 23.4817L11.4929 23.5513C11.4924 23.555 11.4859 23.5902 11.4524 23.63C11.4182 23.6705 11.3821 23.685 11.3724 23.6879L11.2271 23.2095L11.0818 22.7311C10.9391 22.7744 10.7982 22.8544 10.6876 22.9857C10.5776 23.1162 10.523 23.2673 10.5027 23.4121L10.9978 23.4817ZM11.2271 23.2095L11.3724 23.6879L11.572 23.6273L11.4267 23.1489L11.2814 22.6705L11.0818 22.7311L11.2271 23.2095ZM11.4267 23.1489L11.572 23.6273L11.7716 23.5667L11.6263 23.0883L11.481 22.6098L11.2814 22.6705L11.4267 23.1489ZM11.6263 23.0883L11.7716 23.5667C11.8366 23.547 11.8752 23.5495 11.8973 23.5542L12.0019 23.0653L12.1065 22.5764C11.894 22.5309 11.6822 22.5488 11.481 22.6098L11.6263 23.0883ZM12.0019 23.0653L11.8973 23.5542L12.0733 23.5919L12.1779 23.103L12.2825 22.614L12.1065 22.5764L12.0019 23.0653ZM12.1779 23.103L12.0733 23.5919L12.2493 23.6296L12.3539 23.1406L12.4585 22.6517L12.2825 22.614L12.1779 23.103ZM12.3539 23.1406L12.2493 23.6296C12.2751 23.6351 12.3119 23.6494 12.3611 23.6914L12.6854 23.3108L13.0098 22.9303C12.8516 22.7955 12.6674 22.6964 12.4585 22.6517L12.3539 23.1406ZM12.6854 23.3108L12.3611 23.6914L12.5167 23.8239L12.841 23.4434L13.1653 23.0628L13.0098 22.9303L12.6854 23.3108ZM12.841 23.4434L12.5167 23.8239L12.6722 23.9565L12.9965 23.5759L13.3208 23.1954L13.1653 23.0628L12.841 23.4434ZM12.9965 23.5759L12.6722 23.9565C12.6643 23.9498 12.6404 23.9251 12.6262 23.8812C12.6122 23.8382 12.6177 23.8083 12.6182 23.8061L13.1064 23.9144L13.5945 24.0226C13.6254 23.8832 13.6279 23.7282 13.5773 23.5724C13.5264 23.4157 13.4324 23.2904 13.3208 23.1954L12.9965 23.5759ZM13.1064 23.9144L12.6182 23.8061L12.5726 24.012L13.0607 24.1203L13.5488 24.2285L13.5945 24.0226L13.1064 23.9144ZM13.0607 24.1203L12.5726 24.012L12.5269 24.2179L13.015 24.3262L13.5032 24.4344L13.5488 24.2285L13.0607 24.1203ZM13.015 24.3262L12.5269 24.2179C12.5155 24.2694 12.5073 24.2888 12.5077 24.288C12.5082 24.2869 12.5145 24.2727 12.5293 24.252C12.5438 24.2319 12.5742 24.1947 12.6262 24.16L12.9038 24.5758L13.1814 24.9917C13.3205 24.8988 13.3889 24.7673 13.4211 24.695C13.4585 24.611 13.4841 24.5202 13.5032 24.4344L13.015 24.3262ZM12.9038 24.5758L12.6262 24.16L12.5606 24.2037L12.8382 24.6196L13.1158 25.0354L13.1814 24.9917L12.9038 24.5758ZM12.8382 24.6196L12.5606 24.2037L12.4951 24.2475L12.7727 24.6633L13.0503 25.0792L13.1158 25.0354L12.8382 24.6196ZM12.7727 24.6633L12.4951 24.2475C12.4592 24.2714 12.3882 24.3165 12.2768 24.3855L12.5403 24.8105L12.8037 25.2355C12.9147 25.1667 12.9987 25.1136 13.0503 25.0792L12.7727 24.6633ZM12.5403 24.8105L12.2768 24.3855L12.11 24.489L12.3734 24.9139L12.6368 25.3389L12.8037 25.2355L12.5403 24.8105Z" fill="black"/>
<circle cx="2.5" cy="18.5" r="0.5" transform="rotate(-30 2.5 18.5)" fill="black"/>
<path d="M2.69953 18.9345L2.46141 19.3742L2.69953 18.9345ZM2.40257 18.7737L2.16446 19.2133L2.40257 18.7737ZM2.13759 18.2161L1.65186 18.3347L2.13759 18.2161ZM2.94856 18.1832L2.4616 18.0698L2.94856 18.1832ZM2.89051 18.6325L2.39357 18.5772L2.37232 18.7685L2.86926 18.8237L3.3662 18.8789L3.38745 18.6877L2.89051 18.6325ZM2.86926 18.8237L2.37232 18.7685C2.37237 18.768 2.37302 18.7622 2.37535 18.7523C2.37764 18.7426 2.38228 18.7259 2.39139 18.7047C2.40903 18.6637 2.45178 18.5878 2.54285 18.5284C2.64016 18.4648 2.74289 18.4524 2.8191 18.4606C2.88625 18.4678 2.92823 18.4898 2.93765 18.4949L2.69953 18.9345L2.46141 19.3742C2.55936 19.4272 2.82376 19.5392 3.08955 19.3657C3.31847 19.2162 3.35622 18.9688 3.3662 18.8789L2.86926 18.8237ZM2.69953 18.9345L2.93765 18.4949L2.78917 18.4144L2.55105 18.8541L2.31293 19.2938L2.46141 19.3742L2.69953 18.9345ZM2.55105 18.8541L2.78917 18.4144L2.64069 18.334L2.40257 18.7737L2.16446 19.2133L2.31293 19.2938L2.55105 18.8541ZM2.40257 18.7737L2.64069 18.334C2.64487 18.3363 2.65977 18.3457 2.67534 18.3656C2.69115 18.3858 2.69841 18.4051 2.70099 18.4156L2.21526 18.5342L1.72953 18.6528C1.79009 18.9008 1.94572 19.0949 2.16446 19.2133L2.40257 18.7737ZM2.21526 18.5342L2.70099 18.4156L2.66215 18.2566L2.17642 18.3752L1.69069 18.4938L1.72953 18.6528L2.21526 18.5342ZM2.17642 18.3752L2.66215 18.2566L2.62331 18.0975L2.13759 18.2161L1.65186 18.3347L1.69069 18.4938L2.17642 18.3752ZM2.13759 18.2161L2.62331 18.0975C2.62978 18.124 2.63881 18.1796 2.62322 18.2514C2.60632 18.3293 2.56596 18.4 2.51045 18.4532C2.41592 18.5438 2.32634 18.54 2.36403 18.5368L2.32287 18.0385L2.2817 17.5402C2.16997 17.5495 1.97481 17.5814 1.81852 17.7312C1.62241 17.9192 1.61009 18.1636 1.65186 18.3347L2.13759 18.2161ZM2.32287 18.0385L2.36403 18.5368L2.58815 18.5183L2.54698 18.02L2.50581 17.5217L2.2817 17.5402L2.32287 18.0385ZM2.54698 18.02L2.58815 18.5183L2.81227 18.4998L2.7711 18.0015L2.72993 17.5032L2.50581 17.5217L2.54698 18.02ZM2.7711 18.0015L2.81227 18.4998C2.87924 18.4943 2.86819 18.502 2.82263 18.4914C2.80373 18.4871 2.70574 18.4642 2.61472 18.371C2.56334 18.3184 2.51816 18.2469 2.49553 18.1588C2.47335 18.0724 2.47909 17.9947 2.49271 17.9363L2.97967 18.0497L3.46663 18.1632C3.50426 18.0016 3.4677 17.8132 3.3302 17.6724C3.2244 17.564 3.10163 17.5296 3.04796 17.5172C2.93289 17.4905 2.81237 17.4964 2.72993 17.5032L2.7711 18.0015ZM2.97967 18.0497L2.49271 17.9363L2.47715 18.003L2.96411 18.1165L3.45107 18.2299L3.46663 18.1632L2.97967 18.0497ZM2.96411 18.1165L2.47715 18.003L2.4616 18.0698L2.94856 18.1832L3.43552 18.2967L3.45107 18.2299L2.96411 18.1165ZM2.94856 18.1832L2.4616 18.0698C2.44352 18.1474 2.4286 18.262 2.41482 18.386L2.91176 18.4412L3.4087 18.4965C3.41546 18.4357 3.42143 18.3878 3.42658 18.3517C3.42914 18.3338 3.43132 18.32 3.43308 18.3099C3.43493 18.2992 3.43581 18.2954 3.43552 18.2967L2.94856 18.1832ZM2.91176 18.4412L2.41482 18.386L2.39357 18.5772L2.89051 18.6325L3.38745 18.6877L3.4087 18.4965L2.91176 18.4412Z" fill="black"/>
</svg>
